<svg width="64" height="64" viewBox="0 0 64 64" fill="none" xmlns="http://www.w3.org/2000/svg">
<circle cx="32.3218" cy="31.6782" r="31.6782" fill="#4E6297"/>
<path d="M46.5769 21.8876C46.5769 19.5158 44.4842 17.4231 42.1124 17.4231H24.1149C21.7432 17.4231 19.6505 19.5158 19.6505 21.8876V39.8851C19.6505 42.2568 21.7432 44.3496 24.1149 44.3496H33.1834V34.1649H29.8351V29.7005H33.1834V27.8867C33.1834 24.8174 35.4157 22.1666 38.206 22.1666H41.8334V26.6311H38.206C37.7875 26.6311 37.3689 27.0497 37.3689 27.8867V29.7005H41.8334V34.1649H37.3689V44.3496H42.1124C44.4842 44.3496 46.5769 42.2568 46.5769 39.8851V21.8876Z" fill="white"/>
</svg>
